<?xml version="1.0" encoding="UTF-8"?>
<svg version="1.1" xmlns="http://www.w3.org/2000/svg" width="500" height="500">
<path d="M0 0 C1.30445068 0.30550781 1.30445068 0.30550781 2.63525391 0.6171875 C45.0868815 10.81502056 84.10589571 35.5528437 111 70 C111.42152344 70.53447754 111.84304688 71.06895508 112.27734375 71.61962891 C131.08469208 95.63806374 143.30580396 123.30346793 150 153 C150.26466064 154.1139917 150.26466064 154.1139917 150.53466797 155.25048828 C156.37034942 180.83147844 155.16567895 211.66648117 149 237 C148.79632813 237.86963379 148.59265625 238.73926758 148.3828125 239.63525391 C138.18497944 282.0868815 113.4471563 321.10589571 79 348 C78.46552246 348.42152344 77.93104492 348.84304688 77.38037109 349.27734375 C53.36193626 368.08469208 25.69653207 380.30580396 -4 387 C-5.1139917 387.26466064 -5.1139917 387.26466064 -6.25048828 387.53466797 C-31.83147844 393.37034942 -62.66648117 392.16567895 -88 386 C-88.86963379 385.79632813 -89.73926758 385.59265625 -90.63525391 385.3828125 C-133.0868815 375.18497944 -172.10589571 350.4471563 -199 316 C-199.42152344 315.46552246 -199.84304687 314.93104492 -200.27734375 314.38037109 C-219.08469208 290.36193626 -231.30580396 262.69653207 -238 233 C-238.17644043 232.25733887 -238.35288086 231.51467773 -238.53466797 230.74951172 C-244.37034942 205.16852156 -243.16567895 174.33351883 -237 149 C-236.69449219 147.69554932 -236.69449219 147.69554932 -236.3828125 146.36474609 C-226.18497944 103.9131185 -201.4471563 64.89410429 -167 38 C-166.46552246 37.57847656 -165.93104492 37.15695313 -165.38037109 36.72265625 C-141.36193626 17.91530792 -113.69653207 5.69419604 -84 -1 C-83.25733887 -1.17644043 -82.51467773 -1.35288086 -81.74951172 -1.53466797 C-56.16852156 -7.37034942 -25.33351883 -6.16567895 0 0 Z " fill="#FEFEFE" transform="translate(294,57)"/>
<path d="M0 0 C7.20816799 6.62568977 12.8554644 16.18534351 14.8125 25.8125 C14.8125 29.4425 14.8125 33.0725 14.8125 36.8125 C0.2925 36.8125 -14.2275 36.8125 -29.1875 36.8125 C-30.1775 32.8525 -30.1775 32.8525 -31.1875 28.8125 C-35.33654681 22.466899 -40.92185312 19.41767207 -48.1875 17.8125 C-59.35975555 16.65098754 -69.92446344 16.72900146 -79.1875 23.8125 C-85.17018945 29.41229733 -87.755756 36.85855931 -88.45776367 44.91357422 C-88.55304768 48.2392612 -88.54804458 51.54839343 -88.5 54.875 C-88.50322266 55.99455078 -88.50644531 57.11410156 -88.50976562 58.26757812 C-88.44388693 68.4787765 -87.49606142 78.80576044 -80.46484375 86.76171875 C-72.4688857 94.34436684 -64.65229588 95.33965482 -53.8515625 95.1015625 C-45.56491999 94.44781885 -38.33911044 92.11238224 -32.4375 86 C-30.70086695 83.16276856 -30.70086695 83.16276856 -29.1875 76.8125 C-39.7475 76.8125 -50.3075 76.8125 -61.1875 76.8125 C-61.1875 67.2425 -61.1875 57.6725 -61.1875 47.8125 C-36.1075 47.8125 -11.0275 47.8125 14.8125 47.8125 C14.8125 62.9925 14.8125 78.1725 14.8125 93.8125 C34.2825 93.8125 53.7525 93.8125 73.8125 93.8125 C72.68648779 103.94660988 72.68648779 103.94660988 71.47265625 108.14453125 C71.0849707 109.49514648 71.0849707 109.49514648 70.68945312 110.87304688 C70.28629883 112.23526367 70.28629883 112.23526367 69.875 113.625 C69.61009766 114.55248047 69.34519531 115.47996094 69.07226562 116.43554688 C67.89343024 120.49272972 66.714448 124.008604 64.8125 127.8125 C40.3925 127.8125 15.9725 127.8125 -9.1875 127.8125 C-10.5075 123.5225 -11.8275 119.2325 -13.1875 114.8125 C-14.693125 115.84375 -16.19875 116.875 -17.75 117.9375 C-32.48187581 127.2727375 -47.3045122 130.18120123 -64.625 130.0625 C-65.74970703 130.07023438 -66.87441406 130.07796875 -68.03320312 130.0859375 C-87.52987651 130.0411433 -103.71207937 125.51795506 -118.3125 112.25 C-134.57750403 95.19479335 -136.93527143 71.1853294 -136.4921875 48.73046875 C-135.82766799 31.56005346 -129.77689018 14.41820267 -117.59765625 1.98828125 C-86.69246682 -25.9115413 -32.27882939 -25.87234417 0 0 Z " fill="#282828" transform="translate(370.1875,191.1875)"/>
<path d="M0 0 C0.95708359 0.00222061 1.91416718 0.00444122 2.9002533 0.00672913 C3.98129837 0.00680466 5.06234344 0.00688019 6.17614746 0.00695801 C7.94018166 0.01469994 7.94018166 0.01469994 9.73985291 0.02259827 C10.93702438 0.02401321 12.13419586 0.02542816 13.36764526 0.02688599 C17.20918732 0.03250472 21.05067208 0.04506041 24.89219666 0.05775452 C27.48920102 0.0627671 30.0862063 0.06733043 32.68321228 0.07142639 C39.06539344 0.08248024 45.44754096 0.0992366 51.82969666 0.12025452 C55.86364729 9.69765913 59.66031379 19.32986239 63.24327087 29.08387756 C63.8861055 30.82155523 64.53786703 32.5559556 65.198349 34.28700256 C72.13629311 52.49009443 72.13629311 52.49009443 69.82969666 62.12025452 C69.47437062 63.94169171 69.12688993 65.76467455 68.78672791 67.58900452 C68.61351013 68.49779358 68.44029236 69.40658264 68.26182556 70.34291077 C67.52206534 75.09743745 67.48950901 79.81684417 67.51719666 84.62025452 C67.5228363 85.66052795 67.52847595 86.70080139 67.5342865 87.77259827 C67.81883348 106.1864504 71.19660743 123.63616578 80.94688416 139.51869202 C81.82969666 141.12025452 81.82969666 141.12025452 81.82969666 143.12025452 C72.91969666 143.12025452 64.00969666 143.12025452 54.82969666 143.12025452 C54.00469666 140.74837952 53.17969666 138.37650452 52.32969666 135.93275452 C52.0686615 135.19516907 51.80762634 134.45758362 51.53868103 133.69764709 C50.22881273 129.8486095 49.82969666 127.27781525 49.82969666 123.12025452 C24.58469666 123.61525452 24.58469666 123.61525452 -1.17030334 124.12025452 C-2.82030334 130.06025452 -4.47030334 136.00025452 -6.17030334 142.12025452 C-7.17030334 143.12025452 -7.17030334 143.12025452 -9.07485962 143.24050903 C-9.90758896 143.23828842 -10.7403183 143.23606781 -11.59828186 143.23377991 C-12.53918167 143.23370438 -13.48008148 143.23362885 -14.44949341 143.23355103 C-15.47239975 143.22838974 -16.49530609 143.22322845 -17.54920959 143.21791077 C-19.11190834 143.21578835 -19.11190834 143.21578835 -20.70617676 143.21362305 C-24.04841428 143.20800531 -27.39058591 143.19544982 -30.73280334 143.18275452 C-32.99256801 143.1777418 -35.25233371 143.1731785 -37.51210022 143.16908264 C-43.06485725 143.15803013 -48.61757559 143.14127476 -54.17030334 143.12025452 C-51.89107434 135.1165318 -49.16311228 127.30509318 -46.33827209 119.47962952 C-45.864815 118.16248992 -45.39155828 116.84527829 -44.91848755 115.52799988 C-43.66118141 112.02944259 -42.40038091 108.53215488 -41.13864136 105.0351944 C-40.35418906 102.86023359 -39.57073516 100.68491574 -38.78761292 98.50947571 C-31.42705825 78.06347074 -24.00511261 57.6412982 -16.44425964 37.2684021 C-14.58450473 32.25255917 -12.74649828 27.22901698 -10.91639709 22.20228577 C-10.3945879 20.77080765 -9.87277802 19.33932978 -9.35096741 17.90785217 C-8.61317517 15.88341644 -7.87625508 13.85868804 -7.14234924 11.83283997 C-6.49130283 10.03584787 -5.83676656 8.24012126 -5.18202209 6.44447327 C-4.81552551 5.4347345 -4.44902893 4.42499573 -4.07142639 3.38465881 C-2.78592643 0.15436563 -2.78592643 0.15436563 0 0 Z " fill="#282828" transform="translate(152.17030334472656,161.87974548339844)"/>
<path d="M0 0 C0.66 0 1.32 0 2 0 C5.63382917 11.1592059 9.00267892 22.34991644 11.99462891 33.69970703 C13.3547302 38.83533319 13.3547302 38.83533319 15.171875 43.8203125 C16 46 16 46 16 51 C6.1 51 -3.8 51 -14 51 C-12.87698728 43.13891097 -12.87698728 43.13891097 -11.8359375 40.0390625 C-11.60406738 39.33177002 -11.37219727 38.62447754 -11.13330078 37.89575195 C-10.88306152 37.14640381 -10.63282227 36.39705566 -10.375 35.625 C-6.54365912 23.85594948 -3.27665954 11.93306207 0 0 Z " fill="#F7F7F7" transform="translate(175,202)"/>
<path d="M0 0 C21.45 0 42.9 0 65 0 C65 1.65 65 3.3 65 5 C43.22 5 21.44 5 -1 5 C-0.67 3.35 -0.34 1.7 0 0 Z " fill="#535353" transform="translate(103,155)"/>
<path d="M0 0 C2.375 -0.125 2.375 -0.125 5 0 C5.66 0.66 6.32 1.32 7 2 C6.44444444 6.55555556 6.44444444 6.55555556 5 8 C3.33382885 8.04063832 1.66611905 8.042721 0 8 C0 5.36 0 2.72 0 0 Z " fill="#8B8B8B" transform="translate(223,350)"/>
<path d="M0 0 C1.65 0 3.3 0 5 0 C4.01 0.33 3.02 0.66 2 1 C2 1.66 2 2.32 2 3 C2.99 3 3.98 3 5 3 C5 3.66 5 4.32 5 5 C4.01 5 3.02 5 2 5 C2 5.66 2 6.32 2 7 C2.99 7.33 3.98 7.66 5 8 C3.35 8 1.7 8 0 8 C0 5.36 0 2.72 0 0 Z " fill="#919191" transform="translate(237,350)"/>
<path d="M0 0 C0.99 0.33 1.98 0.66 3 1 C3 2.65 3 4.3 3 6 C2.01 6 1.02 6 0 6 C0 4.02 0 2.04 0 0 Z " fill="#F7F7F7" transform="translate(225,351)"/>
</svg>
